<svg xmlns="http://www.w3.org/2000/svg" width="700" height="750">
<rect x="250.0" y="250.0" width="150" height="200" style="fill:white;stroke:black;stroke-width:2"/><text x="325.0" y="350.0" font-size="12" text-anchor="middle" alignment-baseline="middle">Entrance Hall</text><rect x="400.0" y="250.0" width="100" height="200" style="fill:white;stroke:black;stroke-width:2"/><text x="450.0" y="350.0" font-size="12" text-anchor="middle" alignment-baseline="middle">Hallway</text><rect x="500.0" y="250.0" width="150" height="200" style="fill:white;stroke:black;stroke-width:2"/><text x="575.0" y="350.0" font-size="12" text-anchor="middle" alignment-baseline="middle">Kitchen</text><rect x="250.0" y="450.0" width="100" height="100" style="fill:white;stroke:black;stroke-width:2"/><text x="300.0" y="500.0" font-size="12" text-anchor="middle" alignment-baseline="middle">Staircase</text><rect x="250.0" y="550.0" width="100" height="100" style="fill:white;stroke:black;stroke-width:2"/><text x="300.0" y="600.0" font-size="12" text-anchor="middle" alignment-baseline="middle">Bathroom</text><rect x="400.0" y="450.0" width="200" height="250" style="fill:white;stroke:black;stroke-width:2"/><text x="500.0" y="575.0" font-size="12" text-anchor="middle" alignment-baseline="middle">Living Room</text><rect x="400.0" y="50.0" width="200" height="200" style="fill:white;stroke:black;stroke-width:2"/><text x="500.0" y="150.0" font-size="12" text-anchor="middle" alignment-baseline="middle">Dining Room</text><rect x="50.0" y="450.0" width="200" height="250" style="fill:white;stroke:black;stroke-width:2"/><text x="150.0" y="575.0" font-size="12" text-anchor="middle" alignment-baseline="middle">Master Bedroom</text><rect x="50.0" y="50.0" width="200" height="200" style="fill:white;stroke:black;stroke-width:2"/><text x="150.0" y="150.0" font-size="12" text-anchor="middle" alignment-baseline="middle">Children's Bedroom</text>
<rect x="395.0" y="345.0" width="10" height="10" style="fill:black;"/><rect x="295.0" y="445.0" width="10" height="10" style="fill:black;"/><rect x="495.0" y="345.0" width="10" height="10" style="fill:black;"/><rect x="445.0" y="445.0" width="10" height="10" style="fill:black;"/><rect x="445.0" y="245.0" width="10" height="10" style="fill:black;"/><rect x="295.0" y="545.0" width="10" height="10" style="fill:black;"/><rect x="245.0" y="495.0" width="10" height="10" style="fill:black;"/>
</svg>